<?xml version="1.0" encoding="utf-8"?>
<!-- Generator: Adobe Illustrator 16.0.0, SVG Export Plug-In . SVG Version: 6.00 Build 0)  -->
<!DOCTYPE svg PUBLIC "-//W3C//DTD SVG 1.1//EN" "http://www.w3.org/Graphics/SVG/1.1/DTD/svg11.dtd">
<svg version="1.1" id="Layer_1" xmlns="http://www.w3.org/2000/svg" xmlns:xlink="http://www.w3.org/1999/xlink" x="0px" y="0px"
	 width="512px" height="512px" viewBox="0 0 512 512" enable-background="new 0 0 512 512" xml:space="preserve">
<g>
	<g>
		<path fill-rule="evenodd" clip-rule="evenodd" d="M194.994,52.5c-88.083,0-159.5,71.411-159.5,159.5
			c0,88.09,159.5,265.833,159.5,265.833S354.5,300.091,354.5,212C354.5,123.91,283.083,52.5,194.994,52.5z M194.994,278.455
			c-44.042,0-79.75-35.705-79.75-79.747c0-44.048,35.708-79.75,79.75-79.75c44.047,0,79.75,35.702,79.75,79.75
			C274.744,242.75,239.041,278.455,194.994,278.455z"/>
	</g>
</g>
<path fill="#010101" d="M444.358,364.659c7.069-3.81,16.01-4,23.16-0.28c9.51,4.55,15.59,15.4,14.189,25.9
	c-0.62,5.53-3.1,10.85-7.04,14.8c-21.99,22.01-44.01,43.98-66,65.99c-7.5,7.26-19.64,8.81-28.85,4c-5.28-2.41-8.82-7.13-12.73-11.21
	c-10.74-11.271-21.359-22.641-32.09-33.931c-5.96-6.479-8.46-16.069-5.96-24.579c2.61-9.431,11.11-16.9,20.8-18.28
	c8.12-1.4,16.73,1.729,22.36,7.689c6.74,6.75,13.439,13.54,20.29,20.181c14.319-14.36,28.67-28.7,42.97-43.08
	C438.148,369.149,440.887,366.369,444.358,364.659z"/>
</svg>
